<svg xmlns="http://www.w3.org/2000/svg" viewBox="0 0 200 200">
  <defs>
    <linearGradient id="doodle-bg" x1="0%" y1="0%" x2="100%" y2="100%">
      <stop offset="0%" style="stop-color:#ffeaa7"/>
      <stop offset="100%" style="stop-color:#dfe6e9"/>
    </linearGradient>
  </defs>
  <rect width="200" height="200" fill="url(#doodle-bg)"/>
  <!-- Notebook lines -->
  <line x1="0" y1="40" x2="200" y2="40" stroke="#ccc" stroke-width="1"/>
  <line x1="0" y1="80" x2="200" y2="80" stroke="#ccc" stroke-width="1"/>
  <line x1="0" y1="120" x2="200" y2="120" stroke="#ccc" stroke-width="1"/>
  <line x1="0" y1="160" x2="200" y2="160" stroke="#ccc" stroke-width="1"/>
  <!-- Doodle monster -->
  <!-- Body - sketchy circle -->
  <path d="M 60 110 Q 55 80 80 70 Q 110 60 130 75 Q 150 90 145 120 Q 140 150 110 155 Q 80 160 65 140 Q 55 125 60 110" fill="none" stroke="#333" stroke-width="2.5"/>
  <!-- Fill with hatching -->
  <line x1="70" y1="85" x2="85" y2="100" stroke="#333" stroke-width="1"/>
  <line x1="80" y1="80" x2="100" y2="105" stroke="#333" stroke-width="1"/>
  <line x1="95" y1="75" x2="120" y2="100" stroke="#333" stroke-width="1"/>
  <line x1="115" y1="80" x2="135" y2="105" stroke="#333" stroke-width="1"/>
  <!-- Eyes -->
  <circle cx="85" cy="100" r="10" fill="white" stroke="#333" stroke-width="2"/>
  <circle cx="115" cy="100" r="10" fill="white" stroke="#333" stroke-width="2"/>
  <circle cx="88" cy="100" r="5" fill="#333"/>
  <circle cx="118" cy="100" r="5" fill="#333"/>
  <!-- Smile -->
  <path d="M 85 125 Q 100 140 115 125" stroke="#333" stroke-width="2.5" fill="none"/>
  <!-- Antenna/hair doodles -->
  <path d="M 90 70 Q 85 50 95 45" stroke="#333" stroke-width="2" fill="none"/>
  <path d="M 110 68 Q 115 48 125 50" stroke="#333" stroke-width="2" fill="none"/>
  <!-- Stars and doodles around -->
  <path d="M 40 50 L 45 60 L 55 60 L 47 67 L 50 77 L 40 70 L 30 77 L 33 67 L 25 60 L 35 60 Z" fill="none" stroke="#333" stroke-width="1.5"/>
  <path d="M 160 130 L 163 138 L 172 138 L 165 143 L 168 152 L 160 147 L 152 152 L 155 143 L 148 138 L 157 138 Z" fill="none" stroke="#333" stroke-width="1.5"/>
  <!-- Squiggle -->
  <path d="M 150 50 Q 160 45 165 55 Q 170 65 180 60" stroke="#333" stroke-width="1.5" fill="none"/>
</svg>
