<svg xmlns="http://www.w3.org/2000/svg" viewBox="0 0 200 200">
  <defs>
    <linearGradient id="ghibli-bg" x1="0%" y1="0%" x2="100%" y2="100%">
      <stop offset="0%" style="stop-color:#d4a574"/>
      <stop offset="100%" style="stop-color:#8b7355"/>
    </linearGradient>
    <linearGradient id="ghibli-sky" x1="0%" y1="0%" x2="0%" y2="100%">
      <stop offset="0%" style="stop-color:#87CEEB"/>
      <stop offset="100%" style="stop-color:#E0F4FF"/>
    </linearGradient>
  </defs>
  <rect width="200" height="200" fill="url(#ghibli-sky)"/>
  <!-- Clouds -->
  <ellipse cx="40" cy="40" rx="30" ry="15" fill="white" opacity="0.8"/>
  <ellipse cx="55" cy="35" rx="25" ry="12" fill="white" opacity="0.9"/>
  <ellipse cx="150" cy="50" rx="35" ry="18" fill="white" opacity="0.7"/>
  <!-- Forest spirit character -->
  <circle cx="100" cy="130" r="40" fill="#8FBC8F"/>
  <circle cx="100" cy="115" r="35" fill="#98D898"/>
  <!-- Eyes -->
  <ellipse cx="85" cy="110" rx="8" ry="10" fill="white"/>
  <ellipse cx="115" cy="110" rx="8" ry="10" fill="white"/>
  <circle cx="85" cy="112" r="5" fill="#2F4F2F"/>
  <circle cx="115" cy="112" r="5" fill="#2F4F2F"/>
  <circle cx="87" cy="110" r="2" fill="white"/>
  <circle cx="117" cy="110" r="2" fill="white"/>
  <!-- Cute smile -->
  <path d="M 88 125 Q 100 135 112 125" stroke="#2F4F2F" stroke-width="2" fill="none"/>
  <!-- Leaf ears -->
  <ellipse cx="65" cy="85" rx="15" ry="8" fill="#6B8E23" transform="rotate(-30 65 85)"/>
  <ellipse cx="135" cy="85" rx="15" ry="8" fill="#6B8E23" transform="rotate(30 135 85)"/>
  <!-- Grass -->
  <path d="M 0 180 Q 20 160 40 180 Q 60 160 80 180 Q 100 160 120 180 Q 140 160 160 180 Q 180 160 200 180 L 200 200 L 0 200 Z" fill="#7CB342"/>
</svg>
