<svg xmlns="http://www.w3.org/2000/svg" viewBox="0 0 200 200">
  <defs>
    <linearGradient id="pastel-bg" x1="0%" y1="0%" x2="100%" y2="100%">
      <stop offset="0%" style="stop-color:#fce7f3"/>
      <stop offset="100%" style="stop-color:#ddd6fe"/>
    </linearGradient>
  </defs>
  <rect width="200" height="200" fill="url(#pastel-bg)"/>
  <!-- Cute bunny -->
  <!-- Ears -->
  <ellipse cx="75" cy="50" rx="15" ry="35" fill="#FFE4E1"/>
  <ellipse cx="125" cy="50" rx="15" ry="35" fill="#FFE4E1"/>
  <ellipse cx="75" cy="50" rx="8" ry="25" fill="#FFB6C1"/>
  <ellipse cx="125" cy="50" rx="8" ry="25" fill="#FFB6C1"/>
  <!-- Head -->
  <circle cx="100" cy="110" r="50" fill="#FFE4E1"/>
  <!-- Eyes -->
  <ellipse cx="80" cy="100" rx="10" ry="12" fill="#333"/>
  <ellipse cx="120" cy="100" rx="10" ry="12" fill="#333"/>
  <circle cx="83" cy="97" r="4" fill="white"/>
  <circle cx="123" cy="97" r="4" fill="white"/>
  <!-- Nose -->
  <ellipse cx="100" cy="115" rx="6" ry="4" fill="#FFB6C1"/>
  <!-- Mouth -->
  <path d="M 95 122 Q 100 128 105 122" stroke="#FFB6C1" stroke-width="2" fill="none"/>
  <!-- Cheeks -->
  <ellipse cx="65" cy="115" rx="10" ry="6" fill="#FFB6C1" opacity="0.5"/>
  <ellipse cx="135" cy="115" rx="10" ry="6" fill="#FFB6C1" opacity="0.5"/>
  <!-- Body -->
  <ellipse cx="100" cy="170" rx="35" ry="25" fill="#FFE4E1"/>
  <!-- Sparkles -->
  <text x="40" y="80" font-size="16" fill="#E6E6FA">✦</text>
  <text x="150" y="70" font-size="12" fill="#FFB6C1">✦</text>
  <text x="160" y="150" font-size="14" fill="#DDA0DD">✦</text>
</svg>
