<svg xmlns="http://www.w3.org/2000/svg" viewBox="0 0 200 200">
  <defs>
    <linearGradient id="street-bg" x1="0%" y1="0%" x2="100%" y2="100%">
      <stop offset="0%" style="stop-color:#f857a6"/>
      <stop offset="100%" style="stop-color:#ff5858"/>
    </linearGradient>
  </defs>
  <rect width="200" height="200" fill="#808080"/>
  <!-- Brick texture -->
  <g fill="#696969" opacity="0.5">
    <rect x="0" y="0" width="40" height="20"/>
    <rect x="50" y="0" width="40" height="20"/>
    <rect x="100" y="0" width="40" height="20"/>
    <rect x="150" y="0" width="50" height="20"/>
    <rect x="20" y="25" width="40" height="20"/>
    <rect x="70" y="25" width="40" height="20"/>
    <rect x="120" y="25" width="40" height="20"/>
    <rect x="170" y="25" width="30" height="20"/>
  </g>
  <!-- Graffiti character -->
  <ellipse cx="100" cy="100" rx="50" ry="55" fill="#FFD700" stroke="#000" stroke-width="4"/>
  <!-- Cool shades -->
  <rect x="60" y="85" width="35" height="15" rx="3" fill="#000"/>
  <rect x="105" y="85" width="35" height="15" rx="3" fill="#000"/>
  <rect x="95" y="88" width="10" height="5" fill="#000"/>
  <!-- Smirk -->
  <path d="M 80 115 Q 100 130 120 115" stroke="#000" stroke-width="4" fill="none"/>
  <!-- Spray paint drips -->
  <path d="M 55 130 L 55 160" stroke="#FF1493" stroke-width="8" stroke-linecap="round"/>
  <circle cx="55" cy="165" r="6" fill="#FF1493"/>
  <path d="M 145 125 L 145 150" stroke="#00CED1" stroke-width="6" stroke-linecap="round"/>
  <circle cx="145" cy="155" r="5" fill="#00CED1"/>
  <!-- Tag elements -->
  <text x="15" y="180" font-family="Arial Black" font-size="24" fill="#FF1493" transform="rotate(-10 15 180)">ART</text>
  <circle cx="170" cy="170" r="15" fill="none" stroke="#00CED1" stroke-width="3"/>
  <text x="160" y="175" font-size="14" fill="#00CED1">★</text>
</svg>
